<svg width="28" height="23" viewBox="0 0 28 23" fill="none" xmlns="http://www.w3.org/2000/svg">
<path d="M27.9999 3.02994C26.9693 3.47982 25.8585 3.77545 24.7074 3.91684C25.8852 3.2356 26.7954 2.1559 27.2237 0.857689C26.1128 1.50037 24.8814 1.95024 23.5831 2.20731C22.5258 1.10191 21.0401 0.459229 19.3537 0.459229C16.2084 0.459229 13.6386 2.92711 13.6386 5.97341C13.6386 6.41043 13.6922 6.8346 13.7859 7.23306C9.02106 7.0017 4.77824 4.80374 1.95416 1.47466C1.45895 2.28444 1.17788 3.2356 1.17788 4.23818C1.17788 6.15336 2.1817 7.85003 3.73427 8.81405C2.78399 8.81405 1.90063 8.55698 1.12434 8.17137C1.12434 8.17137 1.12434 8.17137 1.12434 8.20993C1.12434 10.8835 3.10521 13.12 5.72853 13.6213C5.24669 13.7498 4.73809 13.8141 4.2161 13.8141C3.85473 13.8141 3.49335 13.7755 3.14536 13.7113C3.86811 15.8835 5.96944 17.5031 8.49907 17.5416C6.54497 19.0326 4.06888 19.9067 1.36526 19.9067C0.910191 19.9067 0.455126 19.881 6.10352e-05 19.8296C2.54307 21.3977 5.56791 22.3103 8.80691 22.3103C19.3537 22.3103 25.1491 13.9041 25.1491 6.61609C25.1491 6.37187 25.1491 6.14051 25.1357 5.89629C26.26 5.12507 27.2236 4.1482 27.9999 3.02994Z" fill="#E36302"/>
</svg>
