<svg width="302" height="236" viewBox="0 0 302 236" fill="none" xmlns="http://www.w3.org/2000/svg">
<g clip-path="url(#clip0)">
<path d="M266.079 219.479C266.057 219.381 263.928 209.636 268.275 201.541C272.622 193.447 281.901 189.878 281.994 189.843L282.418 189.683L282.518 190.127C282.54 190.224 284.669 199.97 280.322 208.064C275.975 216.158 266.696 219.727 266.603 219.763L266.179 219.922L266.079 219.479ZM281.837 190.766C279.978 191.569 272.643 195.082 268.971 201.918C265.3 208.755 266.407 216.84 266.761 218.839C268.618 218.039 275.951 214.531 279.626 207.687C283.297 200.851 282.19 192.766 281.837 190.766Z" fill="#3F3D56"/>
<path d="M277 205.225C269.189 209.944 266.18 219.317 266.18 219.317C266.18 219.317 275.837 221.039 283.648 216.32C291.46 211.601 294.468 202.228 294.468 202.228C294.468 202.228 284.812 200.506 277 205.225Z" fill="#D0CDE1"/>
<path d="M107.28 176.83C106.351 176.83 105.412 176.815 104.491 176.786L104.512 176.115C105.835 176.156 107.185 176.168 108.513 176.149L108.523 176.822C108.109 176.827 107.695 176.83 107.28 176.83ZM112.551 176.674L112.512 176.003C113.837 175.925 115.178 175.814 116.5 175.675L116.569 176.344C115.238 176.484 113.886 176.595 112.551 176.674ZM100.466 176.569C99.1305 176.467 97.7808 176.332 96.4543 176.169L96.5361 175.501C97.8524 175.663 99.1917 175.797 100.517 175.899L100.466 176.569ZM120.568 175.83L120.468 175.166C121.784 174.965 123.11 174.732 124.408 174.473L124.539 175.132C123.23 175.393 121.894 175.628 120.568 175.83ZM92.4655 175.584C91.146 175.36 89.8142 175.102 88.507 174.817L88.649 174.159C89.9462 174.442 91.2678 174.698 92.5773 174.921L92.4655 175.584ZM128.474 174.252L128.313 173.6C129.605 173.279 130.904 172.924 132.174 172.546L132.364 173.191C131.084 173.572 129.776 173.929 128.474 174.252ZM84.5881 173.867C83.2938 173.521 81.9914 173.141 80.7169 172.736L80.9186 172.095C82.1835 172.497 83.4759 172.874 84.7601 173.217L84.5881 173.867ZM136.202 171.95L135.982 171.315C137.236 170.878 138.497 170.405 139.73 169.909L139.979 170.533C138.736 171.033 137.465 171.509 136.202 171.95ZM76.8917 171.424C75.6347 170.96 74.3698 170.459 73.1326 169.936L73.3925 169.316C74.6203 169.835 75.8753 170.332 77.1229 170.793L76.8917 171.424ZM143.678 168.947L143.401 168.335C144.605 167.785 145.815 167.199 146.997 166.592L147.302 167.191C146.11 167.802 144.891 168.393 143.678 168.947ZM150.843 165.269L150.511 164.686C151.666 164.024 152.818 163.329 153.936 162.619L154.294 163.187C153.167 163.902 152.006 164.603 150.843 165.269ZM157.647 160.947L157.264 160.396C158.351 159.633 159.436 158.835 160.488 158.022L160.896 158.556C159.836 159.374 158.743 160.179 157.647 160.947ZM55.5878 160C54.5071 159.212 53.4274 158.386 52.3787 157.545L52.7965 157.02C53.8373 157.854 54.9087 158.674 55.9812 159.456L55.5878 160ZM164.034 156.018L163.603 155.504C164.616 154.645 165.624 153.751 166.6 152.844L167.055 153.338C166.072 154.251 165.055 155.153 164.034 156.018ZM49.285 154.947C48.2784 154.062 47.2784 153.141 46.3128 152.211L46.7765 151.725C47.7348 152.649 48.7271 153.563 49.726 154.441L49.285 154.947ZM169.951 150.522L169.475 150.05C170.409 149.1 171.333 148.116 172.22 147.127L172.718 147.577C171.824 148.574 170.893 149.565 169.951 150.522ZM43.4686 149.342C42.5451 148.367 41.633 147.359 40.7577 146.346L41.2635 145.906C42.1321 146.911 43.0371 147.911 43.9538 148.878L43.4686 149.342ZM175.349 144.508L174.831 144.081C175.675 143.05 176.506 141.986 177.302 140.918L177.838 141.32C177.036 142.396 176.199 143.469 175.349 144.508ZM38.186 143.231C37.3566 142.179 36.54 141.093 35.7587 140.002L36.3021 139.61C37.0775 140.691 37.8879 141.77 38.7111 142.814L38.186 143.231ZM180.179 138.021L179.626 137.644C180.372 136.54 181.104 135.404 181.799 134.266L182.37 134.618C181.669 135.764 180.932 136.909 180.179 138.021ZM33.4814 136.667C32.7518 135.544 32.0377 134.388 31.3588 133.231L31.9355 132.89C32.6094 134.038 33.3181 135.185 34.0422 136.299L33.4814 136.667ZM184.403 131.116L183.817 130.791C184.46 129.623 185.085 128.424 185.674 127.226L186.274 127.524C185.681 128.731 185.051 129.939 184.403 131.116H184.403ZM187.979 123.848L187.366 123.578C187.899 122.354 188.412 121.101 188.889 119.854L189.514 120.095C189.033 121.352 188.517 122.615 187.979 123.848H187.979ZM25.963 122.397C25.4497 121.16 24.9581 119.894 24.502 118.635L25.1314 118.405C25.5839 119.655 26.0718 120.911 26.581 122.138L25.963 122.397ZM190.875 116.273L190.239 116.062C190.657 114.798 191.051 113.505 191.411 112.221L192.056 112.403C191.693 113.697 191.296 114.999 190.875 116.273ZM23.2121 114.8C22.8137 113.518 22.4394 112.21 22.0995 110.909L22.7472 110.738C23.0845 112.029 23.4561 113.328 23.8514 114.6L23.2121 114.8ZM193.057 108.481L192.405 108.329C192.705 107.033 192.979 105.71 193.22 104.396L193.878 104.518C193.636 105.842 193.359 107.175 193.057 108.481ZM21.167 106.971C20.8878 105.657 20.635 104.32 20.416 102.994L21.0764 102.883C21.294 104.199 21.5448 105.527 21.8219 106.83L21.167 106.971ZM194.517 100.521L193.853 100.43C194.033 99.1133 194.185 97.7706 194.305 96.439L194.972 96.4994C194.851 97.8415 194.698 99.1944 194.517 100.521ZM19.8473 98.9863C19.6894 97.6553 19.5598 96.2998 19.4619 94.9574L20.1298 94.9081C20.2268 96.2407 20.3556 97.5858 20.5124 98.9068L19.8473 98.9863ZM195.245 92.4613L194.576 92.4311C194.635 91.0989 194.666 89.7476 194.666 88.415H195.335C195.335 89.7578 195.305 91.1192 195.245 92.4613ZM19.259 90.9144C19.2361 90.09 19.2245 89.2489 19.2243 88.415C19.2243 87.8976 19.2287 87.3812 19.2375 86.8658L19.9072 86.8776C19.8983 87.3891 19.8939 87.9016 19.8939 88.415C19.8941 89.2427 19.9057 90.0775 19.9283 90.896L19.259 90.9144ZM20.0661 82.8637L19.3978 82.8216C19.4813 81.4782 19.5967 80.1214 19.7404 78.7886L20.4061 78.861C20.2634 80.1837 20.1491 81.5303 20.0661 82.8637H20.0661ZM194.233 78.7617C194.1 77.4362 193.916 76.7899 193.721 75.4702L194.384 75.372C194.579 76.7018 194.747 77.7169 194.882 79.0524L194.233 78.7617ZM20.9275 74.8784L20.2657 74.7757C20.4709 73.4456 20.7092 72.1049 20.9742 70.7906L21.6305 70.9239C21.3676 72.2282 21.131 73.5587 20.9275 74.8784H20.9275ZM193.046 71.5114C192.79 70.1998 192.502 68.8796 192.189 67.5874L192.84 67.4285C193.155 68.7305 193.445 70.061 193.703 71.3824L193.046 71.5114ZM22.5136 67.0061L21.8641 66.8426C22.1892 65.5404 22.5494 64.2274 22.9345 62.9398L23.5757 63.1332C23.1937 64.4109 22.8363 65.7139 22.5136 67.0061ZM191.153 63.707C190.78 62.4268 190.372 61.1391 189.94 59.8791L190.573 59.6604C191.008 60.9301 191.42 62.228 191.796 63.5179L191.153 63.707ZM24.8187 59.3031L24.187 59.0801C24.632 57.8091 25.1125 56.532 25.615 55.2843L26.2359 55.5365C25.7371 56.7745 25.2602 58.0419 24.8187 59.3031ZM188.553 56.1112C188.064 54.8738 187.541 53.632 186.998 52.4201L187.608 52.144C188.156 53.3653 188.683 54.6166 189.175 55.8633L188.553 56.1112ZM27.8241 51.8408L27.2157 51.5601C27.7749 50.3372 28.3702 49.1108 28.9849 47.9152L29.5799 48.2234C28.9698 49.4101 28.3792 50.6271 27.8241 51.8408ZM185.276 48.8032C184.676 47.6162 184.041 46.4268 183.388 45.2684L183.971 44.9372C184.629 46.1046 185.269 47.3031 185.873 48.4992L185.276 48.8032ZM31.4994 44.6919L30.919 44.3564C31.587 43.1918 32.2915 42.026 33.0129 40.8917L33.5772 41.2535C32.8614 42.3792 32.1621 43.5361 31.4994 44.6919ZM181.341 41.8226C180.634 40.6916 179.893 39.5649 179.139 38.4736L179.689 38.0905C180.449 39.1901 181.196 40.3254 181.908 41.4651L181.341 41.8226ZM35.8094 37.915L35.2621 37.5276C36.0341 36.4283 36.8412 35.3326 37.6615 34.2709L38.1905 34.6829C37.3766 35.7367 36.5753 36.8241 35.8094 37.915ZM176.787 35.2282C175.98 34.167 175.139 33.112 174.288 32.0926L174.802 31.6607C175.659 32.688 176.506 33.7508 177.319 34.8201L176.787 35.2282ZM40.7155 31.5642L40.2058 31.1282C41.0721 30.1066 41.975 29.0896 42.8894 28.1057L43.3788 28.5644C42.4715 29.5409 41.5754 30.5502 40.7155 31.5642ZM171.65 29.0737C170.751 28.0906 169.818 27.1162 168.877 26.178L169.349 25.7009C170.297 26.6466 171.237 27.6282 172.143 28.6187L171.65 29.0737ZM46.1745 25.6904L45.7063 25.2098C46.6638 24.2692 47.6547 23.3393 48.6511 22.446L49.0971 22.9476C48.1082 23.8341 47.1249 24.7569 46.1745 25.6904V25.6904ZM165.976 23.4112C164.99 22.5135 163.972 21.628 162.951 20.7796L163.378 20.2615C164.407 21.1164 165.433 22.0086 166.426 22.9132L165.976 23.4112ZM52.1403 20.3413L51.7175 19.8199C52.7532 18.9731 53.8235 18.1379 54.8989 17.3375L55.2978 17.8776C54.2304 18.672 53.1681 19.5008 52.1403 20.3413H52.1403ZM58.5627 15.5617L58.189 15.004C59.2974 14.2551 60.4385 13.5218 61.5808 12.824L61.9286 13.3986C60.7952 14.0909 59.6628 14.8188 58.5627 15.5617H58.5627ZM65.3888 11.3927L65.0673 10.8027C66.24 10.1584 67.4424 9.53333 68.6411 8.94452L68.9353 9.54859C67.7458 10.1328 66.5526 10.7531 65.3888 11.3927ZM146.202 9.83487C145.011 9.23884 143.79 8.663 142.575 8.12344L142.845 7.50854C144.07 8.0522 145.3 8.63247 146.501 9.23309L146.202 9.83487ZM72.5611 7.87017L72.2949 7.25328C73.5204 6.71996 74.774 6.20847 76.0207 5.73292L76.2584 6.36162C75.0211 6.83339 73.7772 7.34094 72.5611 7.87017ZM138.871 6.58109C137.631 6.09834 136.362 5.63772 135.099 5.21224L135.312 4.57469C136.585 5.00361 137.864 5.46766 139.113 5.95437L138.871 6.58109ZM80.0302 5.02233L79.8216 4.38345C81.0942 3.96455 82.3926 3.57009 83.6805 3.21142L83.8595 3.85916C82.5814 4.2152 81.293 4.60655 80.0302 5.02233H80.0302ZM131.278 4.02265C130.001 3.65709 128.698 3.31664 127.406 3.01083L127.56 2.35653C128.862 2.66464 130.174 3.00771 131.461 3.3759L131.278 4.02265ZM87.7383 2.87442L87.5892 2.21897C88.8937 1.91973 90.2227 1.64708 91.5389 1.40873L91.6579 2.07025C90.3515 2.30696 89.0329 2.57748 87.7383 2.87442ZM123.492 2.17958C122.188 1.93383 120.86 1.7152 119.544 1.52971L119.637 0.863915C120.963 1.05088 122.302 1.27117 123.616 1.51871L123.492 2.17958ZM95.6104 1.44796L95.5218 0.781515C96.8473 0.603905 98.1954 0.454528 99.5284 0.337982L99.5866 1.00771C98.2637 1.1236 96.9261 1.27165 95.6104 1.44796ZM115.571 1.06221C114.252 0.937455 112.909 0.841264 111.58 0.776754L111.613 0.105053C112.952 0.170221 114.304 0.267069 115.633 0.392823L115.571 1.06221ZM103.58 0.749834L103.551 0.078148C104.782 0.0266051 106.036 0.000344714 107.28 1.52588e-05L107.583 0.000505143L107.581 0.672863L107.28 0.672373C106.046 0.672686 104.801 0.698782 103.58 0.749834Z" fill="#3F3D56"/>
<path d="M302 219.287H56.5832V219.959H302V219.287Z" fill="#3F3D56"/>
<path d="M200.221 106.241L203.569 158.349C203.569 158.349 211.605 178.856 211.27 198.354C211.27 198.354 208.256 206.086 210.6 207.431C212.944 208.776 214.283 209.784 212.944 210.793C211.605 211.801 210.6 214.154 211.605 214.827C212.609 215.499 212.944 216.508 212.609 216.508H202.565C202.565 216.508 204.573 211.465 201.56 210.12C198.547 208.776 200.221 205.414 200.221 205.414L177.789 139.523L160.044 200.035C160.044 200.035 163.057 202.052 160.713 203.06C158.369 204.069 157.365 202.052 158.369 204.069C159.374 206.086 158.035 207.095 158.035 207.431C158.035 207.767 147.99 206.422 147.99 206.422C147.99 206.422 153.012 202.052 150.669 201.043C148.325 200.035 147.321 199.026 147.99 198.354C148.66 197.682 151.338 191.294 151.338 191.294C151.338 191.294 152.678 167.089 153.012 166.081C153.347 165.072 153.012 160.366 153.012 158.013C153.012 155.659 152.678 146.246 153.682 143.893C154.687 141.54 155.691 112.628 161.048 109.267C166.405 105.905 200.221 106.241 200.221 106.241Z" fill="#2F2E41"/>
<path d="M157.7 205.75C157.7 205.75 164.396 219.533 159.709 221.214C155.021 222.895 148.995 221.55 147.656 223.567C146.316 225.584 131.585 227.938 131.25 222.895C130.915 217.852 147.321 208.439 147.321 208.439L149.458 204.984L157.7 205.75Z" fill="#2F2E41"/>
<path d="M211.939 215.835C211.939 215.835 218.636 229.619 213.948 231.299C209.261 232.98 203.234 231.636 201.895 233.653C200.556 235.67 185.824 238.023 185.489 232.98C185.154 227.938 201.56 218.525 201.56 218.525L203.697 215.069L211.939 215.835Z" fill="#2F2E41"/>
<path d="M180.969 42.8713C187.071 42.8713 192.018 37.9044 192.018 31.7774C192.018 25.6504 187.071 20.6835 180.969 20.6835C174.867 20.6835 169.92 25.6504 169.92 31.7774C169.92 37.9044 174.867 42.8713 180.969 42.8713Z" fill="#A0616A"/>
<path d="M188.503 37.6604L187.163 47.4096L177.119 55.1417L174.441 51.4438V38.669L188.503 37.6604Z" fill="#A0616A"/>
<path d="M172.766 50.0991C172.766 50.0991 183.146 51.1077 188.503 47.4097L199.216 110.947C199.216 110.947 161.383 113.973 159.709 111.956V92.1215L166.405 59.8483L172.766 50.0991Z" fill="#3F3D56"/>
<path d="M187.581 44.3719L191.181 47.4097C191.181 47.4097 205.913 49.7629 204.908 53.7971L200.891 101.534L202.23 117.671C202.23 117.671 190.846 114.645 182.141 117.671C173.436 120.697 180.352 52.653 180.352 52.653C180.352 52.653 188.333 45.3683 187.581 44.3719Z" fill="#D0CDE1"/>
<path d="M174.44 48.0516C174.44 48.0516 163.726 55.8141 162.387 60.8568C161.048 65.8995 156.695 119.016 156.695 119.016C156.695 119.016 158.704 118.007 159.709 119.688C160.713 121.369 176.115 50.7106 174.44 48.0516Z" fill="#D0CDE1"/>
<path d="M169.926 31.294C169.926 31.294 168.73 29.4925 169.19 27.5525C169.465 26.451 169.573 25.3143 169.512 24.1805C169.512 24.1805 170.478 21.0394 171.444 19.2842C172.41 17.5289 171.95 16.7898 174.986 16.2355C178.022 15.6812 176.78 11.7087 184.785 16.0046C185.055 16.3832 185.431 16.673 185.865 16.8374C186.299 17.0018 186.771 17.0335 187.223 16.9284C188.879 16.605 189.477 18.9146 189.477 18.9146C189.477 18.9146 190.581 18.2679 190.996 19.1918C191.41 20.1156 194.362 18.6373 194.362 24.8732C194.362 31.1091 191.002 36.6793 191.002 36.6793C191.002 36.6793 191.249 26.1898 185.774 25.1274C180.3 24.065 174.411 20.9702 172.985 24.9426C172.215 27.1722 171.188 29.3038 169.926 31.294Z" fill="#2F2E41"/>
<path d="M191.122 33.788C191.719 33.788 192.202 33.1408 192.202 32.3424C192.202 31.544 191.719 30.8967 191.122 30.8967C190.526 30.8967 190.042 31.544 190.042 32.3424C190.042 33.1408 190.526 33.788 191.122 33.788Z" fill="#A0616A"/>
<path d="M145.744 136.304C143.094 134.704 139.9 134.826 138.686 134.948C139.148 136.082 140.536 138.974 143.185 140.574C145.841 142.178 149.031 142.052 150.244 141.931C149.781 140.797 148.394 137.904 145.744 136.304Z" fill="#D0CDE1"/>
<path d="M158.193 168.047H141.635C140.647 168.047 139.699 168.441 139 169.143C138.302 169.844 137.909 170.796 137.909 171.788C137.909 172.78 138.302 173.731 139 174.433C139.699 175.134 140.647 175.529 141.635 175.529H158.193C159.181 175.528 160.127 175.133 160.825 174.432C161.523 173.73 161.915 172.779 161.915 171.788C161.915 170.796 161.523 169.845 160.825 169.144C160.127 168.442 159.181 168.048 158.193 168.047Z" fill="#D0CDE1"/>
<path d="M233.175 128.56H140.337C139.257 128.56 138.188 128.774 137.19 129.189C136.193 129.604 135.286 130.212 134.522 130.979C133.759 131.745 133.153 132.656 132.74 133.657C132.326 134.659 132.114 135.733 132.114 136.817V182.235C132.114 184.425 132.98 186.525 134.522 188.074C136.065 189.622 138.156 190.492 140.337 190.492H233.175C234.255 190.492 235.325 190.278 236.323 189.863C237.32 189.449 238.227 188.84 238.991 188.074C239.754 187.307 240.36 186.396 240.773 185.395C241.187 184.393 241.399 183.319 241.399 182.235V136.817C241.399 135.733 241.187 134.659 240.773 133.657C240.36 132.656 239.754 131.745 238.991 130.979C238.227 130.212 237.32 129.604 236.323 129.189C235.325 128.774 234.255 128.56 233.175 128.56ZM138.04 134.193C138.224 134.16 142.571 133.417 146.171 135.592C149.77 137.766 151.153 141.971 151.21 142.149L151.356 142.602L150.889 142.685C150.222 142.79 149.548 142.839 148.874 142.834C147.239 142.834 144.87 142.562 142.758 141.286C139.159 139.112 137.776 134.907 137.719 134.729L137.573 134.276L138.04 134.193ZM158.193 176.36H141.635C140.427 176.36 139.269 175.878 138.415 175.021C137.561 174.163 137.081 173 137.081 171.788C137.081 170.575 137.561 169.412 138.415 168.555C139.269 167.697 140.427 167.216 141.635 167.216H158.193C159.401 167.216 160.559 167.697 161.413 168.555C162.267 169.412 162.747 170.575 162.747 171.788C162.747 173 162.267 174.163 161.413 175.021C160.559 175.878 159.401 176.36 158.193 176.36ZM233.534 175.529C233.53 176.85 233.006 178.117 232.075 179.051C231.144 179.986 229.883 180.513 228.566 180.516H216.148C214.831 180.513 213.57 179.986 212.639 179.051C211.709 178.117 211.184 176.85 211.18 175.529V168.047C211.184 166.725 211.709 165.459 212.639 164.524C213.57 163.59 214.831 163.063 216.148 163.059H228.566C229.883 163.063 231.144 163.59 232.075 164.524C233.006 165.459 233.53 166.725 233.534 168.047L233.534 175.529Z" fill="#D0CDE1"/>
<path d="M220.08 174.074H214.699C214.315 174.074 213.946 174.227 213.674 174.5C213.403 174.773 213.25 175.143 213.25 175.529C213.25 175.914 213.403 176.284 213.674 176.557C213.946 176.83 214.315 176.983 214.699 176.983H220.08C220.465 176.983 220.833 176.83 221.105 176.557C221.376 176.284 221.529 175.914 221.529 175.529C221.529 175.143 221.376 174.773 221.105 174.5C220.833 174.227 220.465 174.074 220.08 174.074ZM220.08 176.152H214.699C214.617 176.152 214.536 176.136 214.461 176.105C214.385 176.074 214.317 176.028 214.259 175.97C214.201 175.912 214.155 175.843 214.124 175.768C214.092 175.692 214.076 175.611 214.076 175.529C214.076 175.447 214.092 175.365 214.124 175.29C214.155 175.214 214.201 175.145 214.259 175.087C214.317 175.029 214.385 174.983 214.461 174.952C214.536 174.921 214.617 174.905 214.699 174.905H220.08C220.162 174.905 220.243 174.921 220.318 174.952C220.394 174.983 220.462 175.029 220.52 175.087C220.578 175.145 220.624 175.214 220.655 175.29C220.687 175.365 220.703 175.447 220.703 175.529C220.703 175.611 220.687 175.692 220.655 175.768C220.624 175.843 220.578 175.912 220.52 175.97C220.462 176.028 220.394 176.074 220.318 176.105C220.243 176.136 220.162 176.152 220.08 176.152Z" fill="#D0CDE1"/>
<path d="M230.015 174.074H224.634C224.443 174.074 224.255 174.111 224.079 174.184C223.903 174.257 223.743 174.364 223.608 174.499C223.473 174.634 223.366 174.795 223.293 174.971C223.22 175.148 223.183 175.337 223.183 175.529C223.183 175.72 223.22 175.909 223.293 176.086C223.366 176.263 223.473 176.423 223.608 176.558C223.743 176.693 223.903 176.8 224.079 176.873C224.255 176.946 224.443 176.984 224.634 176.983H230.015C230.4 176.983 230.768 176.83 231.04 176.557C231.312 176.284 231.464 175.914 231.464 175.529C231.464 175.143 231.312 174.773 231.04 174.5C230.768 174.227 230.4 174.074 230.015 174.074ZM230.015 176.152H224.634C224.552 176.152 224.471 176.136 224.396 176.105C224.32 176.074 224.252 176.028 224.194 175.97C224.136 175.912 224.09 175.843 224.059 175.768C224.028 175.692 224.011 175.611 224.011 175.529C224.011 175.447 224.028 175.365 224.059 175.29C224.09 175.214 224.136 175.145 224.194 175.087C224.252 175.029 224.32 174.983 224.396 174.952C224.471 174.921 224.552 174.905 224.634 174.905H230.015C230.18 174.906 230.337 174.971 230.453 175.088C230.57 175.205 230.635 175.364 230.635 175.529C230.635 175.694 230.57 175.852 230.453 175.969C230.337 176.086 230.18 176.152 230.015 176.152Z" fill="#D0CDE1"/>
<path d="M220.08 170.333H214.699C214.315 170.333 213.946 170.486 213.674 170.759C213.403 171.032 213.25 171.402 213.25 171.788C213.25 172.174 213.403 172.544 213.674 172.816C213.946 173.089 214.315 173.243 214.699 173.243H220.08C220.271 173.243 220.459 173.205 220.635 173.132C220.811 173.059 220.971 172.952 221.106 172.817C221.241 172.682 221.348 172.522 221.421 172.345C221.494 172.168 221.531 171.979 221.531 171.788C221.531 171.597 221.494 171.407 221.421 171.231C221.348 171.054 221.241 170.893 221.106 170.758C220.971 170.623 220.811 170.516 220.635 170.443C220.459 170.37 220.271 170.333 220.08 170.333ZM220.08 172.411H214.699C214.534 172.411 214.376 172.346 214.26 172.229C214.143 172.112 214.078 171.953 214.078 171.788C214.078 171.622 214.143 171.464 214.26 171.347C214.376 171.23 214.534 171.164 214.699 171.164H220.08C220.245 171.164 220.403 171.23 220.519 171.347C220.636 171.464 220.701 171.622 220.701 171.788C220.701 171.953 220.636 172.112 220.519 172.229C220.403 172.346 220.245 172.411 220.08 172.411Z" fill="#D0CDE1"/>
<path d="M230.015 170.333H224.634C224.443 170.333 224.255 170.37 224.079 170.443C223.903 170.516 223.743 170.623 223.608 170.758C223.473 170.893 223.366 171.054 223.293 171.231C223.22 171.407 223.183 171.597 223.183 171.788C223.183 171.979 223.22 172.168 223.293 172.345C223.366 172.522 223.473 172.682 223.608 172.817C223.743 172.952 223.903 173.059 224.079 173.132C224.255 173.205 224.443 173.243 224.634 173.243H230.015C230.4 173.243 230.768 173.089 231.04 172.816C231.312 172.544 231.464 172.174 231.464 171.788C231.464 171.402 231.312 171.032 231.04 170.759C230.768 170.486 230.4 170.333 230.015 170.333ZM230.015 172.411H224.634C224.469 172.411 224.311 172.346 224.195 172.229C224.078 172.112 224.013 171.953 224.013 171.788C224.013 171.622 224.078 171.464 224.195 171.347C224.311 171.23 224.469 171.164 224.634 171.164H230.015C230.18 171.164 230.338 171.23 230.454 171.347C230.571 171.464 230.636 171.622 230.636 171.788C230.636 171.953 230.571 172.112 230.454 172.229C230.338 172.346 230.18 172.411 230.015 172.411Z" fill="#D0CDE1"/>
<path d="M220.08 166.592H214.699C214.315 166.592 213.946 166.745 213.674 167.018C213.403 167.291 213.25 167.661 213.25 168.047C213.25 168.433 213.403 168.803 213.674 169.076C213.946 169.348 214.315 169.502 214.699 169.502H220.08C220.465 169.502 220.833 169.348 221.105 169.076C221.376 168.803 221.529 168.433 221.529 168.047C221.529 167.661 221.376 167.291 221.105 167.018C220.833 166.745 220.465 166.592 220.08 166.592ZM220.08 168.67H214.699C214.534 168.67 214.376 168.605 214.26 168.488C214.143 168.371 214.078 168.212 214.078 168.047C214.078 167.882 214.143 167.723 214.26 167.606C214.376 167.489 214.534 167.423 214.699 167.423H220.08C220.245 167.423 220.403 167.489 220.519 167.606C220.636 167.723 220.701 167.882 220.701 168.047C220.701 168.212 220.636 168.371 220.519 168.488C220.403 168.605 220.245 168.67 220.08 168.67Z" fill="#D0CDE1"/>
<path d="M230.015 166.592H224.634C224.443 166.592 224.255 166.629 224.079 166.702C223.903 166.775 223.743 166.882 223.608 167.017C223.473 167.153 223.366 167.313 223.293 167.49C223.22 167.666 223.183 167.856 223.183 168.047C223.183 168.238 223.22 168.427 223.293 168.604C223.366 168.781 223.473 168.941 223.608 169.076C223.743 169.211 223.903 169.319 224.079 169.392C224.255 169.465 224.443 169.502 224.634 169.502H230.015C230.399 169.501 230.767 169.348 231.038 169.075C231.31 168.802 231.462 168.432 231.462 168.047C231.462 167.661 231.31 167.292 231.038 167.019C230.767 166.746 230.399 166.593 230.015 166.592ZM230.015 168.67H224.634C224.469 168.67 224.311 168.605 224.195 168.488C224.078 168.371 224.013 168.212 224.013 168.047C224.013 167.882 224.078 167.723 224.195 167.606C224.311 167.489 224.469 167.423 224.634 167.423H230.015C230.18 167.423 230.338 167.489 230.454 167.606C230.571 167.723 230.636 167.882 230.636 168.047C230.636 168.212 230.571 168.371 230.454 168.488C230.338 168.605 230.18 168.67 230.015 168.67Z" fill="#D0CDE1"/>
<path d="M203.904 118.343L201.504 126.207C201.504 126.207 200.891 140.867 192.855 138.85C184.82 136.833 195.199 119.688 195.199 119.688L197.542 115.99L203.904 118.343Z" fill="#A0616A"/>
<path d="M158.369 118.343L155.969 126.207C155.969 126.207 155.356 140.867 147.321 138.85C139.285 136.833 149.664 119.688 149.664 119.688L152.008 115.99L158.369 118.343Z" fill="#A0616A"/>
<path d="M202.23 51.4438C202.23 51.4438 207.587 50.0991 209.261 59.1759C210.935 68.2528 212.944 94.1385 212.944 94.1385L204.908 121.369C204.908 121.369 196.873 116.999 195.199 117.671L201.522 94.0307L196.203 69.9337C196.203 69.9337 200.891 51.4438 202.23 51.4438Z" fill="#D0CDE1"/>
<path opacity="0.15" d="M194.441 70.3935L201.472 93.926L194.441 117.795L198.459 93.926L194.441 70.3935Z" fill="black"/>
<path d="M162.387 69.9337L150.334 117.671C150.334 117.671 156.692 119.778 159.036 121.459L162.387 69.9337Z" fill="#D0CDE1"/>
<path d="M35.9461 189.902C54.4373 189.902 69.4273 174.851 69.4273 156.284C69.4273 137.718 54.4373 122.666 35.9461 122.666C17.455 122.666 2.46495 137.718 2.46495 156.284C2.46495 174.851 17.455 189.902 35.9461 189.902Z" fill="#3F3D56"/>
<path opacity="0.1" d="M35.9461 185.196C51.8485 185.196 64.7399 172.252 64.7399 156.284C64.7399 140.317 51.8485 127.373 35.9461 127.373C20.0437 127.373 7.15231 140.317 7.15231 156.284C7.15231 172.252 20.0437 185.196 35.9461 185.196Z" fill="black"/>
<path d="M34.5664 173.345V169.137C32.4479 169.095 30.2563 168.345 28.978 167.303L29.8546 164.512C31.3737 165.655 33.216 166.283 35.1143 166.303C37.7076 166.303 39.4609 164.595 39.4609 162.221C39.4609 159.929 38.0363 158.513 35.3334 157.263C31.6078 155.596 29.3067 153.68 29.3067 150.055C29.3067 146.597 31.4617 143.972 34.8222 143.347V139.139H37.0867V143.181C38.7753 143.204 40.4224 143.709 41.8351 144.639L40.9218 147.388C39.567 146.457 37.9615 145.963 36.3196 145.972C33.5073 145.972 32.4479 147.888 32.4479 149.555C32.4479 151.721 33.7994 152.805 36.9772 154.305C40.7392 156.054 42.6387 158.221 42.6387 161.929C42.6387 165.22 40.6297 168.303 36.8675 169.011V173.345H34.5664Z" fill="white"/>
<path d="M71.3149 224.666C47.674 228.206 23.6409 228.206 0 224.666V216.597C23.666 219.78 47.6489 219.78 71.3149 216.597V224.666Z" fill="#3F3D56"/>
<path d="M71.3149 212.227C47.674 215.767 23.6409 215.767 0 212.227V204.159C23.666 207.341 47.6489 207.341 71.3149 204.159V212.227Z" fill="#3F3D56"/>
<path d="M71.3149 199.789C47.674 203.329 23.6409 203.329 0 199.789V191.72C23.666 194.903 47.6489 194.903 71.3149 191.72V199.789Z" fill="#3F3D56"/>
</g>
<defs>
<clipPath id="clip0">
<rect width="302" height="236" fill="white"/>
</clipPath>
</defs>
</svg>
