<svg width="149" height="23" viewBox="0 0 149 23" fill="none" xmlns="http://www.w3.org/2000/svg">
  <path d="M7.61226 13.536H5.02026V18H0.268257V1.2H7.94826C9.46826 1.2 10.7883 1.456 11.9083 1.968C13.0283 2.464 13.8923 3.184 14.5003 4.128C15.1083 5.056 15.4123 6.152 15.4123 7.416C15.4123 8.632 15.1243 9.696 14.5483 10.608C13.9883 11.504 13.1803 12.208 12.1243 12.72L15.7483 18H10.6603L7.61226 13.536ZM10.6123 7.416C10.6123 6.632 10.3643 6.024 9.86826 5.592C9.37226 5.16 8.63626 4.944 7.66026 4.944H5.02026V9.864H7.66026C8.63626 9.864 9.37226 9.656 9.86826 9.24C10.3643 8.808 10.6123 8.2 10.6123 7.416ZM31.1139 11.52C31.1139 11.552 31.0899 11.928 31.0419 12.648H21.5859C21.7779 13.32 22.1459 13.84 22.6899 14.208C23.2499 14.56 23.9459 14.736 24.7779 14.736C25.4019 14.736 25.9379 14.648 26.3859 14.472C26.8499 14.296 27.3139 14.008 27.7779 13.608L30.1779 16.104C28.9139 17.512 27.0659 18.216 24.6339 18.216C23.1139 18.216 21.7779 17.928 20.6259 17.352C19.4739 16.776 18.5779 15.976 17.9379 14.952C17.3139 13.928 17.0019 12.768 17.0019 11.472C17.0019 10.192 17.3059 9.048 17.9139 8.04C18.5379 7.016 19.3939 6.216 20.4819 5.64C21.5699 5.064 22.7939 4.776 24.1539 4.776C25.4499 4.776 26.6259 5.048 27.6819 5.592C28.7379 6.12 29.5699 6.896 30.1779 7.92C30.8019 8.928 31.1139 10.128 31.1139 11.52ZM24.1779 8.016C23.4739 8.016 22.8819 8.216 22.4019 8.616C21.9379 9.016 21.6419 9.56 21.5139 10.248H26.8419C26.7139 9.56 26.4099 9.016 25.9299 8.616C25.4659 8.216 24.8819 8.016 24.1779 8.016ZM39.8643 18.216C38.4243 18.216 37.1363 17.928 36.0003 17.352C34.8643 16.776 33.9763 15.976 33.3363 14.952C32.7123 13.928 32.4003 12.768 32.4003 11.472C32.4003 10.176 32.7123 9.024 33.3363 8.016C33.9763 6.992 34.8643 6.2 36.0003 5.64C37.1363 5.064 38.4243 4.776 39.8643 4.776C41.3363 4.776 42.6083 5.096 43.6803 5.736C44.7523 6.36 45.5123 7.232 45.9603 8.352L42.4323 10.152C41.8403 8.984 40.9763 8.4 39.8403 8.4C39.0243 8.4 38.3443 8.672 37.8003 9.216C37.2723 9.76 37.0083 10.512 37.0083 11.472C37.0083 12.448 37.2723 13.216 37.8003 13.776C38.3443 14.32 39.0243 14.592 39.8403 14.592C40.9763 14.592 41.8403 14.008 42.4323 12.84L45.9603 14.64C45.5123 15.76 44.7523 16.64 43.6803 17.28C42.6083 17.904 41.3363 18.216 39.8643 18.216ZM56.1024 4.776C57.7184 4.776 59.0144 5.256 59.9904 6.216C60.9824 7.176 61.4784 8.624 61.4784 10.56V18H56.9184V11.304C56.9184 9.528 56.2064 8.64 54.7824 8.64C53.9984 8.64 53.3664 8.896 52.8864 9.408C52.4224 9.92 52.1904 10.688 52.1904 11.712V18H47.6304V0.191999H52.1904V6.192C52.6864 5.728 53.2704 5.376 53.9424 5.136C54.6144 4.896 55.3344 4.776 56.1024 4.776ZM72.9333 18.336C71.1733 18.336 69.5893 17.968 68.1813 17.232C66.7893 16.48 65.6933 15.44 64.8933 14.112C64.0933 12.784 63.6933 11.28 63.6933 9.6C63.6933 7.92 64.0933 6.416 64.8933 5.088C65.6933 3.76 66.7893 2.728 68.1813 1.992C69.5893 1.24 71.1733 0.863999 72.9333 0.863999C74.4693 0.863999 75.8533 1.136 77.0853 1.68C78.3173 2.224 79.3413 3.008 80.1573 4.032L77.1333 6.768C76.0453 5.456 74.7253 4.8 73.1733 4.8C72.2613 4.8 71.4453 5 70.7253 5.4C70.0213 5.8 69.4693 6.368 69.0693 7.104C68.6853 7.824 68.4933 8.656 68.4933 9.6C68.4933 10.544 68.6853 11.384 69.0693 12.12C69.4693 12.84 70.0213 13.4 70.7253 13.8C71.4453 14.2 72.2613 14.4 73.1733 14.4C74.7253 14.4 76.0453 13.744 77.1333 12.432L80.1573 15.168C79.3413 16.192 78.3173 16.976 77.0853 17.52C75.8533 18.064 74.4693 18.336 72.9333 18.336ZM88.1896 18.216C86.7976 18.216 85.5416 17.928 84.4216 17.352C83.3016 16.776 82.4216 15.976 81.7816 14.952C81.1576 13.928 80.8456 12.768 80.8456 11.472C80.8456 10.192 81.1576 9.04 81.7816 8.016C82.4216 6.992 83.2936 6.2 84.3976 5.64C85.5176 5.064 86.7816 4.776 88.1896 4.776C89.5976 4.776 90.8616 5.064 91.9816 5.64C93.1016 6.2 93.9736 6.992 94.5976 8.016C95.2216 9.024 95.5336 10.176 95.5336 11.472C95.5336 12.768 95.2216 13.928 94.5976 14.952C93.9736 15.976 93.1016 16.776 91.9816 17.352C90.8616 17.928 89.5976 18.216 88.1896 18.216ZM88.1896 14.592C88.9896 14.592 89.6456 14.32 90.1576 13.776C90.6696 13.216 90.9256 12.448 90.9256 11.472C90.9256 10.512 90.6696 9.76 90.1576 9.216C89.6456 8.672 88.9896 8.4 88.1896 8.4C87.3896 8.4 86.7336 8.672 86.2216 9.216C85.7096 9.76 85.4536 10.512 85.4536 11.472C85.4536 12.448 85.7096 13.216 86.2216 13.776C86.7336 14.32 87.3896 14.592 88.1896 14.592ZM114.59 4.776C116.19 4.776 117.462 5.256 118.406 6.216C119.366 7.176 119.846 8.624 119.846 10.56V18H115.286V11.304C115.286 10.392 115.11 9.72 114.758 9.288C114.422 8.856 113.942 8.64 113.318 8.64C112.63 8.64 112.078 8.88 111.662 9.36C111.246 9.84 111.038 10.568 111.038 11.544V18H106.478V11.304C106.478 9.528 105.822 8.64 104.51 8.64C103.806 8.64 103.246 8.88 102.83 9.36C102.414 9.84 102.206 10.568 102.206 11.544V18H97.646V4.992H101.99V6.36C102.47 5.832 103.038 5.44 103.694 5.184C104.366 4.912 105.094 4.776 105.878 4.776C106.79 4.776 107.606 4.944 108.326 5.28C109.046 5.616 109.63 6.128 110.078 6.816C110.59 6.16 111.238 5.656 112.022 5.304C112.806 4.952 113.662 4.776 114.59 4.776ZM130.908 4.776C132.092 4.776 133.164 5.056 134.124 5.616C135.1 6.16 135.868 6.944 136.428 7.968C137.004 8.976 137.292 10.152 137.292 11.496C137.292 12.84 137.004 14.024 136.428 15.048C135.868 16.056 135.1 16.84 134.124 17.4C133.164 17.944 132.092 18.216 130.908 18.216C129.388 18.216 128.18 17.76 127.284 16.848V22.656H122.724V4.992H127.068V6.288C127.916 5.28 129.196 4.776 130.908 4.776ZM129.948 14.592C130.748 14.592 131.404 14.32 131.916 13.776C132.428 13.216 132.684 12.456 132.684 11.496C132.684 10.536 132.428 9.784 131.916 9.24C131.404 8.68 130.748 8.4 129.948 8.4C129.148 8.4 128.492 8.68 127.98 9.24C127.468 9.784 127.212 10.536 127.212 11.496C127.212 12.456 127.468 13.216 127.98 13.776C128.492 14.32 129.148 14.592 129.948 14.592ZM148.388 17.472C148.004 17.712 147.532 17.896 146.972 18.024C146.428 18.152 145.844 18.216 145.22 18.216C143.524 18.216 142.22 17.8 141.308 16.968C140.396 16.136 139.94 14.896 139.94 13.248V8.88H138.044V5.472H139.94V2.088H144.5V5.472H147.476V8.88H144.5V13.2C144.5 13.664 144.62 14.032 144.86 14.304C145.116 14.56 145.452 14.688 145.868 14.688C146.396 14.688 146.86 14.552 147.26 14.28L148.388 17.472Z" fill="white"/>
</svg>
